#!OML:ASF E:\acrobat2\Project_11_07_03\Capture day 1\Session 1\Acrobat.ASF
:FULLY-SPECIFIED
:DEGREES
358
root 3.73644 28.0736 -27.2303 8.65078 3.93544 1.11989
lowerback 2.45101 0.742885 1.39709
upperback 1.55015 1.01723 -0.91743
thorax 0.255629 0.522704 -1.74475
lowerneck -3.08892 -1.11251 -2.76604
upperneck 16.5407 -1.41 1.0672
head 5.51672 -0.77226 0.714761
rclavicle 5.05658e-015 -2.33572e-014
rhumerus -41.7367 -5.97427 -78.2525
rradius 27.133
rwrist 9.48219
rhand 2.03841 -20.6843
rfingers 7.12502
rthumb 27.5413 -48.6896
lclavicle 5.05658e-015 -2.33572e-014
lhumerus -32.4343 -12.5371 83.8318
lradius 41.9789
lwrist 9.11483
lhand -10.8225 -18.7391
lfingers 7.12502
lthumb 15.1915 10.6832
rfemur -8.29924 0.518997 23.0247
rtibia 12.6381
rfoot -20.5561 -14.8575
rtoes -5.27124
lfemur -15.2232 -4.89058 -14.6156
ltibia 14.2207
lfoot 1.89643 -5.64603
ltoes 27.4563
359
root 3.74975 28.0827 -27.1971 8.70309 4.19293 1.21255
lowerback 2.4897 0.676308 1.53777
upperback 1.59784 0.931765 -0.830055
thorax 0.280238 0.481183 -1.73249
lowerneck -3.12999 -1.14435 -2.75469
upperneck 16.443 -1.42602 0.893409
head 5.49268 -0.790122 0.657387
rclavicle 2.73329e-015 4.57205e-015
rhumerus -41.5244 -5.94128 -77.9668
rradius 27.0747
rwrist 9.80928
rhand 1.92416 -20.5675
rfingers 7.12502
rthumb 27.4321 -48.5902
lclavicle 2.73329e-015 4.57205e-015
lhumerus -32.379 -12.4707 84.0445
lradius 41.9414
lwrist 9.19241
lhand -10.8647 -18.6238
lfingers 7.12502
lthumb 15.1508 10.8016
rfemur -8.47287 0.391343 22.9047
rtibia 12.482
rfoot -20.0529 -15.0431
rtoes -4.72731
lfemur -15.4877 -4.70292 -14.786
ltibia 14.7936
lfoot 1.74415 -6.5864
ltoes 27.4584
360
root 3.76556 28.0957 -27.1608 8.72454 4.38908 1.27213
lowerback 2.50434 0.637016 1.70309
upperback 1.65855 0.882746 -0.730966
thorax 0.333292 0.458461 -1.72234
lowerneck -3.11622 -1.18573 -2.73031
upperneck 16.3328 -1.45709 0.714521
head 5.45545 -0.814812 0.59581
rclavicle -1.32689e-014 9.14409e-015
rhumerus -41.286 -6.01526 -77.6122
rradius 26.983
rwrist 10.1552
rhand 1.77128 -20.3971
rfingers 7.12502
rthumb 27.2858 -48.4428
lclavicle -1.32689e-014 9.14409e-015
lhumerus -32.3099 -12.4519 84.2814
lradius 41.8536
lwrist 9.25117
lhand -10.9046 -18.6462
lfingers 7.12502
lthumb 15.1124 10.782
rfemur -8.61274 0.241009 22.7835
rtibia 12.3376
rfoot -19.5052 -15.2081
rtoes -4.47869
lfemur -15.6847 -4.43313 -14.9669
ltibia 15.4622
lfoot 1.51659 -7.40908
ltoes 27.8036
361
root 3.78269 28.1121 -27.1216 8.7184 4.53783 1.29532
lowerback 2.51801 0.621453 1.89609
upperback 1.71097 0.865746 -0.62644
thorax 0.380078 0.451913 -1.72285
lowerneck -3.0398 -1.23914 -2.67712
upperneck 16.2207 -1.50734 0.524877
head 5.40686 -0.847767 0.525541
rclavicle 2.00773e-014 7.95139e-015
rhumerus -41.0737 -6.18035 -77.2088
rradius 26.8805
rwrist 10.4918
rhand 1.59619 -20.216
rfingers 7.12502
rthumb 27.1183 -48.288
lclavicle 2.00773e-014 7.95139e-015
lhumerus -32.2687 -12.489 84.5266
lradius 41.7404
lwrist 9.27704
lhand -10.9131 -18.7502
lfingers 7.12502
lthumb 15.1042 10.6787
rfemur -8.70743 0.121013 22.682
rtibia 12.1763
rfoot -18.954 -15.406
rtoes -4.5535
lfemur -15.8248 -4.08705 -15.1404
ltibia 16.2278
lfoot 1.22263 -8.12767
ltoes 28.373
362
root 3.79999 28.131 -27.0804 8.69899 4.66648 1.29565
lowerback 2.53269 0.617879 2.09927
upperback 1.74826 0.864906 -0.521501
thorax 0.411655 0.453327 -1.7291
lowerneck -2.9279 -1.29955 -2.59403
upperneck 16.1152 -1.56968 0.32773
head 5.354 -0.885252 0.447734
rclavicle -4.22417e-015 1.03368e-014
rhumerus -40.9237 -6.3709 -76.8
rradius 26.8284
rwrist 10.7427
rhand 1.39729 -20.1003
rfingers 7.12502
rthumb 26.928 -48.2018
lclavicle -4.22417e-015 1.03368e-014
lhumerus -32.2582 -12.5752 84.7618
lradius 41.617
lwrist 9.25848
lhand -10.8604 -18.8776
lfingers 7.12502
lthumb 15.155 10.5474
rfemur -8.76693 0.056211 22.5965
rtibia 11.9899
rfoot -18.4317 -15.6686
rtoes -4.82651
lfemur -15.9425 -3.69688 -15.3111
ltibia 17.1092
lfoot 0.846251 -8.77474
ltoes 28.8929
363
root 3.81671 28.1514 -27.0382 8.67444 4.78464 1.28906
lowerback 2.54496 0.618835 2.2867
upperback 1.77803 0.869739 -0.414544
thorax 0.436884 0.45736 -1.72455
lowerneck -2.80851 -1.3614 -2.49579
upperneck 16.0245 -1.6356 0.131031
head 5.30414 -0.923505 0.367621
rclavicle -7.8023e-015 -2.127e-014
rhumerus -40.821 -6.54199 -76.4056
rradius 26.8534
rwrist 10.8577
rhand 1.22505 -20.1397
rfingers 7.12502
rthumb 26.7632 -48.2665
lclavicle -7.8023e-015 -2.127e-014
lhumerus -32.2614 -12.6932 84.981
lradius 41.4901
lwrist 9.19063
lhand -10.6981 -18.9834
lfingers 7.12502
lthumb 15.3113 10.4298
rfemur -8.80486 0.0598404 22.513
rtibia 11.7848
rfoot -17.9371 -16.0098
rtoes -5.14848
lfemur -16.0528 -3.3019 -15.4896
ltibia 18.1019
lfoot 0.371026 -9.36419
ltoes 29.2076
